<svg width="1036" height="229" viewBox="0 0 1036 229" fill="none" xmlns="http://www.w3.org/2000/svg">
<path fill-rule="evenodd" clip-rule="evenodd" d="M832.857 96.6704C845.99 96.6704 865.279 106.015 865.279 128.516C865.279 155.031 844.527 162.776 832.735 162.776C820.942 162.776 814.732 157.048 814.732 157.048V191.675H798.131V98.0042L813.3 98.109L813.874 102.869C813.874 102.869 813.88 102.863 813.892 102.851L813.945 102.798C814.642 102.111 820.554 96.6704 832.857 96.6704ZM987.585 98.0876L1001.9 145.408L1016.4 98.1006L1035.12 98.2812L1000.55 188.405H980.969L992.785 161.252L968.181 98.0876H987.585ZM594.011 96.0812C611.539 96.0812 622.029 108.714 624.646 117.775C627.264 126.837 626.18 135.665 626.18 135.665H577.978C578.96 140.99 582.878 148.848 594.143 148.848C605.408 148.848 608.398 142.247 608.398 142.247H624.592C621.358 153.807 609.943 163.216 594.378 163.216C578.812 163.216 561.231 152.954 561.231 130.253C561.231 107.552 576.482 96.0812 594.011 96.0812ZM756.673 96.0812C774.201 96.0812 784.692 108.714 787.311 117.775C789.929 126.837 788.842 135.665 788.842 135.665H740.646C741.626 140.99 745.539 148.848 756.803 148.848C768.075 148.848 771.061 142.247 771.061 142.247H787.257C784.025 153.807 772.608 163.216 757.04 163.216C741.473 163.216 723.895 152.954 723.895 130.253C723.895 107.552 739.146 96.0812 756.673 96.0812ZM446.161 96.0399C465.045 96.0399 480.376 111.067 480.376 129.576C480.376 148.086 465.045 163.113 446.161 163.113C427.277 163.113 411.946 148.086 411.946 129.576C411.946 111.067 427.277 96.0399 446.161 96.0399ZM934.534 96.0399C953.425 96.0399 968.755 111.067 968.755 129.576C968.755 148.086 953.425 163.113 934.534 163.113L934.247 163.112C934.152 163.113 934.056 163.113 933.96 163.113C915.076 163.113 899.746 148.086 899.746 129.576C899.746 111.067 915.076 96.0399 933.96 96.0399L934.247 96.0411C934.342 96.0403 934.438 96.0399 934.534 96.0399ZM396.652 96.1508C400.999 96.1508 405.535 97.0576 405.535 97.0576V112.642L405.52 112.638C405.124 112.55 396.747 110.751 391.637 114.809C386.402 118.966 387.345 124.796 387.345 124.796V161.849H369.869V123.754C369.869 123.754 369.866 123.661 369.864 123.487L369.864 123.285C369.873 121.059 370.278 111.372 376.407 104.508C383.372 96.7071 392.305 96.1508 396.652 96.1508ZM520.735 95.9297C523.726 95.9549 534.539 95.9511 542.345 103.565C549.917 110.95 550.303 122.97 550.32 123.685L550.32 123.714L550.32 123.718V161.66H533.184V124.332C533.184 124.33 533.184 124.326 533.184 124.32L533.184 124.274C533.168 123.297 532.739 111.079 520.937 111.079C506.775 111.079 507.724 124.765 507.724 124.765V161.345H490.372L490.447 124.141C490.447 124.141 489.489 115.981 495.776 106.999C502.527 97.3553 515.266 95.883 520.735 95.9297ZM315.119 68.4629C333.289 68.4629 359.797 85.2766 359.797 113.373C359.797 148.243 332.142 161.493 313.9 161.493L311.192 161.494C295.113 161.503 282.321 161.589 281.019 161.598L280.915 161.598C280.912 161.598 280.91 161.598 280.91 161.598V68.4629H315.119ZM673.506 68.4629C691.676 68.4629 718.184 85.2766 718.184 113.373C718.184 148.243 690.529 161.493 672.287 161.493L669.578 161.494C653.5 161.503 640.708 161.589 639.406 161.598L639.301 161.598C639.298 161.598 639.297 161.598 639.297 161.598V68.4629H673.506ZM891.487 69.6933V161.29H874.706V69.6933H891.487ZM446.161 111.36C436.693 111.36 429.007 119.523 429.007 129.576C429.007 139.63 436.693 147.793 446.161 147.793C455.629 147.793 463.315 139.63 463.315 129.576C463.315 119.523 455.629 111.36 446.161 111.36ZM831.625 111.36C822.16 111.36 814.472 119.523 814.472 129.576C814.472 139.63 822.16 147.793 831.625 147.793C841.089 147.793 848.777 139.63 848.777 129.576C848.777 119.523 841.089 111.36 831.625 111.36ZM934.247 111.362L933.968 111.37C924.765 111.687 917.381 119.724 917.381 129.576C917.381 139.529 924.915 147.628 934.248 147.791C943.587 147.628 951.12 139.528 951.12 129.576C951.12 119.625 943.587 111.526 934.247 111.362ZM313.109 85.096H298.364L298.365 144.965L298.384 144.965C298.386 144.965 298.389 144.964 298.393 144.964L298.416 144.964C298.772 144.955 301.096 144.908 309.56 144.899L310.215 144.899C310.326 144.899 310.438 144.898 310.551 144.898L311.958 144.898L312.325 144.898C324.052 144.898 341.83 136.38 341.83 113.965C341.83 95.9044 324.789 85.096 313.109 85.096ZM671.496 85.096H656.751L656.751 144.965L656.77 144.965C656.773 144.965 656.776 144.964 656.779 144.964L656.802 144.964C657.158 144.955 659.482 144.908 667.948 144.899L668.602 144.899C668.713 144.899 668.826 144.898 668.939 144.898L670.345 144.898L670.712 144.898C682.438 144.898 700.216 136.38 700.216 113.965C700.216 95.9044 683.176 85.096 671.496 85.096ZM594.559 110.455C579.508 110.455 577.673 123.156 577.673 123.156H610.382C610.382 123.156 607.647 110.455 594.559 110.455ZM757.224 110.455C742.169 110.455 740.336 123.156 740.336 123.156H773.045C773.045 123.156 770.311 110.455 757.224 110.455Z" fill="#3F48E9"/>
<path fill-rule="evenodd" clip-rule="evenodd" d="M229.882 114.5C229.882 51.3055 178.576 0 115.382 0C52.1879 0 0.882324 51.3055 0.882324 114.5C0.882324 177.694 52.1879 229 115.382 229C178.576 229 229.882 177.694 229.882 114.5ZM76.1255 70.4915C69.1868 68.8985 48.1724 84.8289 48.1724 84.8289C48.1724 84.8289 109.431 112.309 109.233 112.309L102.294 179.217C102.294 179.217 123.309 170.057 128.662 162.091L182.585 69.695L76.1255 70.4915Z" fill="#3F48E9"/>
</svg>
